<mxfile host="65bd71144e">
    <diagram id="5SF1-kfqFfSyffil5hqn" name="Page-1">
        <mxGraphModel dx="658" dy="563" grid="0" gridSize="10" guides="1" tooltips="1" connect="1" arrows="1" fold="1" page="1" pageScale="1" pageWidth="850" pageHeight="1100" math="0" shadow="0">
            <root>
                <mxCell id="0"/>
                <mxCell id="1" parent="0"/>
                <mxCell id="6" value="Criteria::domain" style="swimlane;childLayout=stackLayout;horizontal=1;startSize=30;horizontalStack=0;rounded=1;fontSize=17;fontStyle=0;strokeWidth=2;resizeParent=0;resizeLast=1;shadow=0;dashed=0;align=center;fontFamily=Courier New;html=1;" parent="1" vertex="1">
                    <mxGeometry x="70" y="110" width="240" height="110" as="geometry"/>
                </mxCell>
                <mxCell id="7" value="- filtros : Filter&lt;br style=&quot;font-size: 14px;&quot;&gt;- ordenacion : Order" style="align=left;strokeColor=none;fillColor=none;spacingLeft=4;fontSize=14;verticalAlign=top;resizable=0;rotatable=0;part=1;fontFamily=Courier New;html=1;" parent="6" vertex="1">
                    <mxGeometry y="30" width="240" height="80" as="geometry"/>
                </mxCell>
                <mxCell id="12" value="Filter::domain" style="swimlane;childLayout=stackLayout;horizontal=1;startSize=30;horizontalStack=0;rounded=1;fontSize=17;fontStyle=0;strokeWidth=2;resizeParent=0;resizeLast=1;shadow=0;dashed=0;align=center;fontFamily=Courier New;html=1;" parent="1" vertex="1">
                    <mxGeometry x="330" y="110" width="260" height="110" as="geometry"/>
                </mxCell>
                <mxCell id="13" value="- field : FilterFiled&lt;br style=&quot;font-size: 14px;&quot;&gt;- operador : FilterOperator&lt;br&gt;- value : FilterValue" style="align=left;strokeColor=none;fillColor=none;spacingLeft=4;fontSize=14;verticalAlign=top;resizable=0;rotatable=0;part=1;fontFamily=Courier New;html=1;" parent="12" vertex="1">
                    <mxGeometry y="30" width="260" height="80" as="geometry"/>
                </mxCell>
                <mxCell id="14" value="Order::domain" style="swimlane;childLayout=stackLayout;horizontal=1;startSize=30;horizontalStack=0;rounded=1;fontSize=17;fontStyle=0;strokeWidth=2;resizeParent=0;resizeLast=1;shadow=0;dashed=0;align=center;fontFamily=Courier New;html=1;fillColor=#000000;" parent="1" vertex="1">
                    <mxGeometry x="192" y="250" width="260" height="120" as="geometry"/>
                </mxCell>
                <mxCell id="15" value="- orderBy : OrderBy&lt;br style=&quot;font-size: 14px;&quot;&gt;- orderType : OrderType" style="align=left;strokeColor=none;fillColor=none;spacingLeft=4;fontSize=14;verticalAlign=top;resizable=0;rotatable=0;part=1;fontFamily=Courier New;html=1;" parent="14" vertex="1">
                    <mxGeometry y="30" width="260" height="90" as="geometry"/>
                </mxCell>
            </root>
        </mxGraphModel>
    </diagram>
</mxfile>